<svg xmlns="http://www.w3.org/2000/svg" viewBox="0 0 22 20"><g opacity=".15"><path fill-rule="evenodd" fill="#040000" d="m22 16.777c0 1.233-1.121 2.233-2.506 2.233-1.384 0-2.506-1-2.506-2.233v-2.553c0-1.234 1.122-2.233 2.506-2.233.174 0 .343.017.506.046v-1.37h-.033c.017-.22.033-.441.033-.666 0-4.418-3.582-8-8-8-4.418 0-8 3.582-8 8 0 .225.016.446.034.666h-.034v1.37c.163-.029.333-.046.505-.046 1.384 0 2.506.999 2.506 2.233v2.553c0 1.233-1.122 2.233-2.506 2.233s-2.505-.999-2.505-2.233v-2.553c0-.258.059-.501.148-.73-.085-.148-.148-.31-.148-.493v-2.667c0-.023.012-.043.013-.067-.004-.088-.013-.176-.013-.266 0-5.523 4.477-10 10-10 5.523 0 10 4.477 10 10 0 .09-.009.178-.014.266.002.024.014.044.014.067v2c0 .306-.145.569-.36.753.224.334.36.72.36 1.138v2.552"/></g><path fill-rule="evenodd" fill="#fff" d="m20 16.777c0 1.233-1.121 2.233-2.506 2.233-1.384 0-2.506-1-2.506-2.233v-2.553c0-1.234 1.122-2.233 2.506-2.233.174 0 .343.017.506.046v-1.37h-.033c.017-.22.033-.441.033-.666 0-4.418-3.582-8-8-8-4.418 0-8 3.582-8 8 0 .225.016.446.034.666h-.034v1.37c.163-.029.333-.046.505-.046 1.384 0 2.506.999 2.506 2.233v2.553c0 1.233-1.122 2.233-2.506 2.233s-2.505-.999-2.505-2.233v-2.553c0-.258.059-.501.148-.73-.085-.148-.148-.31-.148-.493v-2.667c0-.023.012-.043.013-.067-.004-.088-.013-.176-.013-.266 0-5.523 4.477-10 10-10 5.523 0 10 4.477 10 10 0 .09-.009.178-.014.266.002.024.014.044.014.067v2c0 .306-.145.569-.36.753.224.334.36.72.36 1.138v2.552"/></svg>